<?xml version="1.0" encoding="UTF-8"?>
<svg xmlns="http://www.w3.org/2000/svg" xmlns:xlink="http://www.w3.org/1999/xlink" width="154" height="90.464" viewBox="0 0 154 90.464">
  <defs>
    <clipPath id="clip-path">
      <rect id="Rectangle_13" data-name="Rectangle 13" width="104.085" height="90.464" fill="none"></rect>
    </clipPath>
  </defs>
  <g id="Group_7" data-name="Group 7" transform="translate(-881 -29.537)">
    <rect id="Rectangle_15" data-name="Rectangle 15" width="154" height="30" transform="translate(881 90)" fill="#fafafa"></rect>
    <g id="Mask_Group_3" data-name="Mask Group 3" transform="translate(908 29.537)" clip-path="url(#clip-path)">
      <path id="Path_1" data-name="Path 1" d="M42.382,55.234C36,35.166,47.191.861,79.181,0V26.079c-16.755-6.4-40.067,4.981-36.8,29.155" transform="translate(0.299 0)" fill="#eb813a" fill-rule="evenodd"></path>
      <path id="Path_2" data-name="Path 2" d="M69.186,61.505h2.349l5.561-4.97h6.552l-8.124,6.7,8.817,6.859h-6.51l-6.3-5.15H69.186Z" transform="translate(0.509 0.416)" fill="#266caa" fill-rule="evenodd"></path>
      <path id="Path_3" data-name="Path 3" d="M45.708,56.619h7.763l4.182,8.743,4.184-8.743h7.723v13.47H65.336L65.44,60h-.7l-5.3,10.087H55.88L50.581,60h-.752l.1,10.087H45.708Z" transform="translate(0.336 0.416)" fill="#266caa" fill-rule="evenodd"></path>
      <path id="Path_4" data-name="Path 4" d="M40.372,70.088l-1.2-2.28h-9.3l-1.2,2.28H23.77l7.455-13.47H37.88l7.352,13.47Zm-2.708-5.231-2.709-5.1H34.1l-2.714,5.1Z" transform="translate(0.175 0.416)" fill="#266caa" fill-rule="evenodd"></path>
      <path id="Path_5" data-name="Path 5" d="M6.262,70.089V56.619H16.615q3.64.012,4.361.074a3.357,3.357,0,0,1,1.4.459,2.43,2.43,0,0,1,1.1,1.28,8.062,8.062,0,0,1,.3,2.557,8.719,8.719,0,0,1-.19,2.161,2.046,2.046,0,0,1-.718,1.106,3.592,3.592,0,0,1-1.707.613,2.813,2.813,0,0,1,1.938.74,1.845,1.845,0,0,1,.43.93,17.919,17.919,0,0,1,.093,2.3v1.253h-4.22v-.72a10.069,10.069,0,0,0-.091-1.6,1.465,1.465,0,0,0-.32-.739,1.186,1.186,0,0,0-.655-.3,15.585,15.585,0,0,0-1.748-.062H10.545v3.426ZM10.545,63.3h6.026c1.05-.021,1.673-.037,1.879-.052a1.241,1.241,0,0,0,.521-.155.911.911,0,0,0,.39-.5,3.4,3.4,0,0,0,.112-1.005,2.735,2.735,0,0,0-.131-.985.828.828,0,0,0-.445-.474,1.587,1.587,0,0,0-.543-.114c-.207-.018-.808-.027-1.8-.032H10.545Z" transform="translate(0.046 0.416)" fill="#266caa" fill-rule="evenodd"></path>
      <rect id="Rectangle_8" data-name="Rectangle 8" width="5.465" height="5.237" transform="translate(0 51.023)" fill="#eb813a"></rect>
      <rect id="Rectangle_9" data-name="Rectangle 9" width="3.639" height="3.486" transform="translate(6.03 47.345)" fill="#37b5e8"></rect>
      <rect id="Rectangle_10" data-name="Rectangle 10" width="3.639" height="3.484" transform="translate(100.446 59.934)" fill="#2bad55"></rect>
      <path id="Path_6" data-name="Path 6" d="M40.977,46.818C43.993,35.383,36.815,16.532,19.025,16.4V31.255c9.4-4.131,23.112,1.7,21.952,15.564" transform="translate(0.14 0.12)" fill="#2bad55" fill-rule="evenodd"></path>
      <path id="Path_7" data-name="Path 7" d="M84.677,75.494v-5.5l8.862-6.811h5.943l-10.406,7.61v4.743Z" transform="translate(0.623 0.465)" fill="#266caa" fill-rule="evenodd"></path>
      <path id="Path_8" data-name="Path 8" d="M64.657,86.573a3.219,3.219,0,0,0,.91-.222,1.8,1.8,0,0,0,.7-.5.885.885,0,0,0,.233-.551.342.342,0,0,0-.1-.253.392.392,0,0,0-.284-.1,1.242,1.242,0,0,0-.817.409,2.486,2.486,0,0,0-.638,1.212m-.029.187a2.457,2.457,0,0,0-.022.31.807.807,0,0,0,.816.811,1.256,1.256,0,0,0,.524-.112,4.252,4.252,0,0,0,.743-.493l.08.108a2.533,2.533,0,0,1-1.707.887,1,1,0,0,1-.829-.348,1.192,1.192,0,0,1-.28-.766,2.271,2.271,0,0,1,.348-1.152,2.655,2.655,0,0,1,.872-.918,2.007,2.007,0,0,1,1.081-.328.893.893,0,0,1,.591.164.494.494,0,0,1,.192.385.91.91,0,0,1-.249.6,2.3,2.3,0,0,1-.967.605,5.451,5.451,0,0,1-1.193.244m-.774-1.9-.071.248h-.549l-.419,1.652a10.309,10.309,0,0,1-.552,1.69,2.924,2.924,0,0,1-.856,1.159,1.188,1.188,0,0,1-.693.249.569.569,0,0,1-.387-.136.3.3,0,0,1-.117-.244.278.278,0,0,1,.1-.212.329.329,0,0,1,.232-.09.251.251,0,0,1,.175.064.192.192,0,0,1,.071.147.208.208,0,0,1-.081.155c-.041.034-.06.061-.06.079a.063.063,0,0,0,.027.053.166.166,0,0,0,.1.027.7.7,0,0,0,.344-.1,1.038,1.038,0,0,0,.318-.306,2.423,2.423,0,0,0,.268-.581q.05-.159.282-1.047l.657-2.559h-.657l.05-.248a1.446,1.446,0,0,0,.439-.045.528.528,0,0,0,.228-.167,2.468,2.468,0,0,0,.272-.459,3.6,3.6,0,0,1,.427-.7,2.049,2.049,0,0,1,.587-.507,1.229,1.229,0,0,1,.582-.168.7.7,0,0,1,.459.144.416.416,0,0,1,.173.316.312.312,0,0,1-.087.225.3.3,0,0,1-.223.09.27.27,0,0,1-.192-.07.212.212,0,0,1-.076-.162.31.31,0,0,1,.05-.148.374.374,0,0,0,.049-.119.1.1,0,0,0-.034-.079.217.217,0,0,0-.14-.038.664.664,0,0,0-.427.15,1.75,1.75,0,0,0-.456.629q-.1.221-.375,1.109Zm-2.667-.095-.745,2.652a1.857,1.857,0,0,0-.076.319.133.133,0,0,0,.036.1.1.1,0,0,0,.082.038.228.228,0,0,0,.136-.06,2.211,2.211,0,0,0,.435-.485l.132.09a2.809,2.809,0,0,1-.605.663.8.8,0,0,1-.488.2.353.353,0,0,1-.253-.092.309.309,0,0,1-.1-.234,1.97,1.97,0,0,1,.095-.464l.492-1.693a2.708,2.708,0,0,0,.117-.521.179.179,0,0,0-.057-.135.229.229,0,0,0-.157-.054,2.872,2.872,0,0,0-.348.043v-.146Zm-.046-1.5a.373.373,0,0,1,.375.375.379.379,0,0,1-.109.268.356.356,0,0,1-.266.112.365.365,0,0,1-.268-.112.369.369,0,0,1-.112-.268.358.358,0,0,1,.111-.264.366.366,0,0,1,.269-.111m-1.582-.455-1.291,4.5a2.491,2.491,0,0,0-.095.414.145.145,0,0,0,.035.095.121.121,0,0,0,.087.036.245.245,0,0,0,.155-.065,2.082,2.082,0,0,0,.414-.479l.112.117a2.72,2.72,0,0,1-.662.71.8.8,0,0,1-.421.141.332.332,0,0,1-.333-.325,2.686,2.686,0,0,1,.117-.557L58.7,83.846a3.87,3.87,0,0,0,.123-.5.187.187,0,0,0-.074-.152.352.352,0,0,0-.223-.057,1.656,1.656,0,0,0-.263.027v-.141Zm-6.845,2.168,1.3-.216-.543,1.84a6.137,6.137,0,0,1,1.2-1.583.878.878,0,0,1,.5-.258.257.257,0,0,1,.2.075.308.308,0,0,1,.071.217.956.956,0,0,1-.126.474.285.285,0,0,1-.263.168.217.217,0,0,1-.148-.056.266.266,0,0,1-.079-.173.133.133,0,0,0-.031-.095.1.1,0,0,0-.071-.026.26.26,0,0,0-.122.026,1.337,1.337,0,0,0-.3.3,8.2,8.2,0,0,0-.681.956,3.261,3.261,0,0,0-.273.564q-.153.432-.177.521l-.122.474H52.47l.7-2.347a2.437,2.437,0,0,0,.117-.581.138.138,0,0,0-.056-.113.3.3,0,0,0-.2-.062,2.083,2.083,0,0,0-.29.034Zm-1.319.708a.767.767,0,0,0-.174-.54.581.581,0,0,0-.445-.187c-.369,0-.71.266-1.02.8a3.111,3.111,0,0,0-.468,1.585.767.767,0,0,0,.184.551.6.6,0,0,0,.455.193c.356,0,.69-.262,1-.79a3.122,3.122,0,0,0,.467-1.609m.624.26a2.349,2.349,0,0,1-.3,1.123,2.272,2.272,0,0,1-.837.881,2.015,2.015,0,0,1-1.041.323A1.138,1.138,0,0,1,49,87.941a1.157,1.157,0,0,1-.328-.852,2.233,2.233,0,0,1,.319-1.117,2.424,2.424,0,0,1,.854-.884,1.986,1.986,0,0,1,1.033-.326,1.1,1.1,0,0,1,.824.331,1.169,1.169,0,0,1,.32.852m-3.43-1.089-.071.248h-.55l-.418,1.652A10.3,10.3,0,0,1,47,88.446a2.914,2.914,0,0,1-.855,1.159,1.191,1.191,0,0,1-.694.249.564.564,0,0,1-.386-.136.3.3,0,0,1-.117-.244.281.281,0,0,1,.1-.212.333.333,0,0,1,.233-.09.249.249,0,0,1,.174.064.192.192,0,0,1,.071.147.21.21,0,0,1-.08.155c-.042.034-.061.061-.061.079a.065.065,0,0,0,.027.053.17.17,0,0,0,.1.027.692.692,0,0,0,.342-.1,1.029,1.029,0,0,0,.319-.306,2.388,2.388,0,0,0,.267-.581q.051-.159.282-1.047l.657-2.559H46.72l.051-.248a1.455,1.455,0,0,0,.439-.045.54.54,0,0,0,.228-.167,2.527,2.527,0,0,0,.272-.459,3.555,3.555,0,0,1,.426-.7,2.065,2.065,0,0,1,.588-.507,1.223,1.223,0,0,1,.581-.168.7.7,0,0,1,.46.144.418.418,0,0,1,.172.316.311.311,0,0,1-.086.225.3.3,0,0,1-.224.09.269.269,0,0,1-.191-.07.209.209,0,0,1-.076-.162.318.318,0,0,1,.049-.148.387.387,0,0,0,.05-.119.1.1,0,0,0-.034-.079.22.22,0,0,0-.141-.038.661.661,0,0,0-.426.15,1.727,1.727,0,0,0-.456.629,11.313,11.313,0,0,0-.376,1.109Zm-4.436-.095-.232,1.165h-.139a1.2,1.2,0,0,0-.217-.737.619.619,0,0,0-.489-.231.53.53,0,0,0-.369.127.4.4,0,0,0-.137.31.559.559,0,0,0,.052.238,1.474,1.474,0,0,0,.242.315,4.789,4.789,0,0,1,.632.811,1.094,1.094,0,0,1,.144.515.924.924,0,0,1-.326.7,1.164,1.164,0,0,1-.824.3,1.946,1.946,0,0,1-.63-.127.552.552,0,0,0-.192-.047.279.279,0,0,0-.258.174h-.136l.231-1.226h.141a1.259,1.259,0,0,0,.234.814.757.757,0,0,0,.591.238.64.64,0,0,0,.455-.159.519.519,0,0,0,.169-.394.663.663,0,0,0-.06-.282,3.381,3.381,0,0,0-.447-.627,3.468,3.468,0,0,1-.434-.6.929.929,0,0,1-.1-.4.829.829,0,0,1,.267-.621.961.961,0,0,1,.686-.253,1.131,1.131,0,0,1,.221.019c.034.009.116.038.247.087a1.032,1.032,0,0,0,.26.074.323.323,0,0,0,.272-.179Zm-5.3,1.812a3.219,3.219,0,0,0,.91-.222,1.8,1.8,0,0,0,.7-.5.891.891,0,0,0,.233-.551.339.339,0,0,0-.1-.253.388.388,0,0,0-.283-.1,1.242,1.242,0,0,0-.817.409,2.486,2.486,0,0,0-.638,1.212m-.029.187a2.458,2.458,0,0,0-.022.31.807.807,0,0,0,.815.811,1.257,1.257,0,0,0,.525-.112,4.251,4.251,0,0,0,.743-.493l.08.108a2.533,2.533,0,0,1-1.708.887,1,1,0,0,1-.828-.348,1.192,1.192,0,0,1-.28-.766,2.271,2.271,0,0,1,.348-1.152,2.653,2.653,0,0,1,.871-.918,2.01,2.01,0,0,1,1.082-.328.893.893,0,0,1,.591.164.494.494,0,0,1,.192.385.91.91,0,0,1-.249.6,2.294,2.294,0,0,1-.968.605,5.427,5.427,0,0,1-1.192.244m-1.367.6a2.866,2.866,0,0,1-.795.691,1.735,1.735,0,0,1-.847.221,1.131,1.131,0,0,1-.836-.3,1.1,1.1,0,0,1-.3-.812,2.246,2.246,0,0,1,.323-1.138,2.617,2.617,0,0,1,.868-.91,1.973,1.973,0,0,1,1.07-.351.93.93,0,0,1,.618.174.533.533,0,0,1,.2.421.58.58,0,0,1-.146.4.314.314,0,0,1-.258.132.263.263,0,0,1-.272-.268.339.339,0,0,1,.027-.131.534.534,0,0,1,.119-.144.566.566,0,0,0,.107-.124.165.165,0,0,0,.019-.079.152.152,0,0,0-.071-.131.544.544,0,0,0-.31-.076,1.256,1.256,0,0,0-.734.26,2.124,2.124,0,0,0-.622.739,2.457,2.457,0,0,0-.31,1.163.835.835,0,0,0,.221.61.8.8,0,0,0,.6.227,1.284,1.284,0,0,0,.577-.146,2.472,2.472,0,0,0,.639-.526Zm-4.57-2.4a.822.822,0,0,0-.513.231,3.2,3.2,0,0,0-.99,2.093.591.591,0,0,0,.13.4.381.381,0,0,0,.3.151c.273,0,.569-.2.894-.61a2.636,2.636,0,0,0,.647-1.657.711.711,0,0,0-.125-.464.428.428,0,0,0-.339-.146m1.347-.2L33.5,87.324l-.085.349a.356.356,0,0,0-.01.079.181.181,0,0,0,.036.109.1.1,0,0,0,.076.031.23.23,0,0,0,.127-.06,2.208,2.208,0,0,0,.4-.45l.126.09a2.314,2.314,0,0,1-.535.6.889.889,0,0,1-.513.2.337.337,0,0,1-.242-.081.312.312,0,0,1-.082-.235,1.89,1.89,0,0,1,.085-.488l.081-.287a3.769,3.769,0,0,1-.912.906,1.111,1.111,0,0,1-.586.184.616.616,0,0,1-.476-.228.922.922,0,0,1-.2-.628,2.7,2.7,0,0,1,.36-1.269,3.088,3.088,0,0,1,.918-1.069,1.406,1.406,0,0,1,.817-.318.613.613,0,0,1,.388.121.792.792,0,0,1,.233.4l.136-.43Zm-6.67,3.023a.78.78,0,0,0,.633.282.839.839,0,0,0,.4-.111,1.527,1.527,0,0,0,.4-.323,2.691,2.691,0,0,0,.35-.495,4.132,4.132,0,0,0,.278-.666,2.42,2.42,0,0,0,.125-.758.675.675,0,0,0-.139-.459.414.414,0,0,0-.325-.16,1.093,1.093,0,0,0-.806.467,2.987,2.987,0,0,0-.583,1.1Zm.881-3.023-.263.873a3.26,3.26,0,0,1,.736-.678,1.268,1.268,0,0,1,.658-.2.742.742,0,0,1,.575.267,1.011,1.011,0,0,1,.237.7,2.742,2.742,0,0,1-.676,1.689,1.973,1.973,0,0,1-1.577.859,1.114,1.114,0,0,1-.657-.189l-.278.977a1.853,1.853,0,0,0-.085.371.238.238,0,0,0,.045.144.3.3,0,0,0,.141.092,1.538,1.538,0,0,0,.388.032l-.034.141H25.882l.036-.141a.814.814,0,0,0,.474-.119,1.391,1.391,0,0,0,.258-.589l.958-3.311a2.225,2.225,0,0,0,.086-.389.216.216,0,0,0-.056-.158.244.244,0,0,0-.179-.058,2.181,2.181,0,0,0-.3.029v-.146ZM22.919,88.3l.423-1.9h.131c-.019.184-.028.336-.028.454a1.13,1.13,0,0,0,.331.845,1.186,1.186,0,0,0,.865.323.925.925,0,0,0,.749-.3,1.053,1.053,0,0,0,.255-.7,1,1,0,0,0-.112-.47,7.106,7.106,0,0,0-.954-1.1,3.166,3.166,0,0,1-.477-.564,1.265,1.265,0,0,1-.174-.642,1.223,1.223,0,0,1,.4-.919,1.425,1.425,0,0,1,1.025-.381,1.777,1.777,0,0,1,.4.041,2.69,2.69,0,0,1,.426.156c.144.055.225.086.24.093a.745.745,0,0,0,.118.009.327.327,0,0,0,.19-.055.867.867,0,0,0,.184-.244h.146l-.395,1.7h-.131c.013-.153.019-.275.019-.367a.99.99,0,0,0-.3-.749,1.107,1.107,0,0,0-.8-.292.9.9,0,0,0-.636.231.716.716,0,0,0-.246.536.892.892,0,0,0,.157.5,5.559,5.559,0,0,0,.723.783,4.02,4.02,0,0,1,.728.847,1.33,1.33,0,0,1,.165.648,1.544,1.544,0,0,1-.2.757,1.385,1.385,0,0,1-.592.565,1.8,1.8,0,0,1-.842.2,2.072,2.072,0,0,1-.421-.041,5.6,5.6,0,0,1-.63-.2A.682.682,0,0,0,23.413,88c-.151,0-.266.1-.348.3Z" transform="translate(0.169 0.609)" fill="#606062"></path>
      <path id="Path_9" data-name="Path 9" d="M84.156,77.794v.776a.933.933,0,0,1-.548.882,3.856,3.856,0,0,1-1.7.286h-.844a3.511,3.511,0,0,1-1.788-.324,1.348,1.348,0,0,1-.5-1.219v-.273h.975v.455a.714.714,0,0,0,.282.653,2,2,0,0,0,1.005.179h.925a1.989,1.989,0,0,0,.935-.155.606.606,0,0,0,.26-.569v-.461a1.079,1.079,0,0,0-.033-.314.484.484,0,0,0-.106-.183,3.46,3.46,0,0,0-1.608-.346l-.451-.04c-.034-.005-.08-.009-.134-.014a6.653,6.653,0,0,1-1.157-.174,1.162,1.162,0,0,1-.539-.352.878.878,0,0,1-.171-.554v-.671a.934.934,0,0,1,.55-.881,3.872,3.872,0,0,1,1.7-.285h.672a3.582,3.582,0,0,1,1.755.316,1.146,1.146,0,0,1,.522,1.068v.156h-.974v-.177a.714.714,0,0,0-.273-.651,2,2,0,0,0-1-.176h-.76a2.028,2.028,0,0,0-.941.152.6.6,0,0,0-.26.562v.58q0,.449,1.3.553l.47.04a6.344,6.344,0,0,1,1.959.383.817.817,0,0,1,.483.779m-6.38,1.356v.521H73.564v-5.4h4.213V74.8H74.5V76.6h3.049v.522H74.5V79.15Zm-8.186.521V74.8H67.576v-.521h4.966V74.8H70.528v4.867Zm-6.235-1.659h2.8l-1.339-3.006Zm-1.766,1.659,2.707-5.4h1.092l2.546,5.4H66.926l-.533-1.16H63.116l-.591,1.16Zm-2.595,0V74.8H56.981v-.521h4.966V74.8H59.932v4.867Zm-2.867-1.877v.776a.934.934,0,0,1-.549.882,3.856,3.856,0,0,1-1.7.286h-.844a3.511,3.511,0,0,1-1.788-.324,1.348,1.348,0,0,1-.5-1.219v-.273h.975v.455A.714.714,0,0,0,52,79.03a2,2,0,0,0,1.005.179h.926a1.989,1.989,0,0,0,.934-.155.606.606,0,0,0,.26-.569v-.461a1.079,1.079,0,0,0-.033-.314.471.471,0,0,0-.106-.183,3.46,3.46,0,0,0-1.608-.346l-.45-.04c-.035-.005-.081-.009-.135-.014a6.653,6.653,0,0,1-1.157-.174A1.157,1.157,0,0,1,51.1,76.6a.878.878,0,0,1-.171-.554v-.671a.934.934,0,0,1,.55-.881,3.872,3.872,0,0,1,1.7-.285h.672a3.582,3.582,0,0,1,1.755.316,1.147,1.147,0,0,1,.523,1.068v.156h-.975v-.177a.714.714,0,0,0-.273-.651,2,2,0,0,0-1-.176h-.76a2.028,2.028,0,0,0-.941.152.6.6,0,0,0-.26.562v.58q0,.449,1.3.553l.469.04a6.344,6.344,0,0,1,1.959.383.817.817,0,0,1,.484.779M49.748,79.15v.521H45.535v-5.4h4.213V74.8H46.472V76.6H49.52v.522H46.472V79.15Zm-11.317.521V77.414l-2.47-3.139h1.025l1.9,2.605,1.9-2.605h.939l-2.366,3.139v2.256Zm-8.369,0v-5.4H31V76.6h.482l3.014-2.322h1.04L32.21,76.837l3.755,2.834H34.793L31.4,77.11H31v2.561Zm-10.086,0v-5.4H21.47l2.626,4.75,2.824-4.75h1.43v5.4h-.858V74.737l-2.925,4.934h-.951l-2.78-4.934v4.934Zm-5.494-1.659h2.8l-1.34-3.006Zm-1.766,1.659,2.707-5.4h1.092l2.547,5.4h-1.01l-.533-1.16H14.243l-.592,1.16Zm-3.6-4.889H7.548V77H9.121a3.9,3.9,0,0,0,1.48-.172.679.679,0,0,0,.327-.663v-.7a.54.54,0,0,0-.308-.542,4.617,4.617,0,0,0-1.5-.143M7.548,77.52v2.151H6.612v-5.4H9.266a5.317,5.317,0,0,1,2.161.284,1.088,1.088,0,0,1,.528,1.057v.5a.935.935,0,0,1-.355.79,2.082,2.082,0,0,1-1.1.325,1.985,1.985,0,0,1,1.026.349.933.933,0,0,1,.327.768v1.326h-.936V78.592a.92.92,0,0,0-.358-.857,3.058,3.058,0,0,0-1.4-.215Z" transform="translate(0.049 0.546)" fill="#4b4b4d"></path>
      <rect id="Rectangle_11" data-name="Rectangle 11" width="15.286" height="0.215" transform="translate(6.661 86.37)" fill="#727376"></rect>
      <rect id="Rectangle_12" data-name="Rectangle 12" width="15.764" height="0.215" transform="translate(68.441 86.37)" fill="#727376"></rect>
    </g>
  </g>
</svg>
